<svg id="wave" style="transform:rotate(180deg); transition: 0.3s" viewBox="0 0 1440 210" version="1.1" xmlns="http://www.w3.org/2000/svg"><defs><linearGradient id="sw-gradient-0" x1="0" x2="0" y1="1" y2="0"><stop stop-color="rgba(139.527, 76.315, 146.034, 1)" offset="0%"></stop><stop stop-color="rgba(218.994, 153.641, 225.722, 1)" offset="100%"></stop></linearGradient></defs><path style="transform:translate(0, 0px); opacity:1" fill="url(#sw-gradient-0)" d="M0,84L60,70C120,56,240,28,360,21C480,14,600,28,720,52.5C840,77,960,112,1080,133C1200,154,1320,161,1440,161C1560,161,1680,154,1800,150.5C1920,147,2040,147,2160,147C2280,147,2400,147,2520,140C2640,133,2760,119,2880,108.5C3000,98,3120,91,3240,84C3360,77,3480,70,3600,73.5C3720,77,3840,91,3960,80.5C4080,70,4200,35,4320,21C4440,7,4560,14,4680,17.5C4800,21,4920,21,5040,21C5160,21,5280,21,5400,35C5520,49,5640,77,5760,87.5C5880,98,6000,91,6120,87.5C6240,84,6360,84,6480,84C6600,84,6720,84,6840,87.5C6960,91,7080,98,7200,108.5C7320,119,7440,133,7560,115.5C7680,98,7800,49,7920,42C8040,35,8160,70,8280,87.5C8400,105,8520,105,8580,105L8640,105L8640,210L8580,210C8520,210,8400,210,8280,210C8160,210,8040,210,7920,210C7800,210,7680,210,7560,210C7440,210,7320,210,7200,210C7080,210,6960,210,6840,210C6720,210,6600,210,6480,210C6360,210,6240,210,6120,210C6000,210,5880,210,5760,210C5640,210,5520,210,5400,210C5280,210,5160,210,5040,210C4920,210,4800,210,4680,210C4560,210,4440,210,4320,210C4200,210,4080,210,3960,210C3840,210,3720,210,3600,210C3480,210,3360,210,3240,210C3120,210,3000,210,2880,210C2760,210,2640,210,2520,210C2400,210,2280,210,2160,210C2040,210,1920,210,1800,210C1680,210,1560,210,1440,210C1320,210,1200,210,1080,210C960,210,840,210,720,210C600,210,480,210,360,210C240,210,120,210,60,210L0,210Z"></path><defs><linearGradient id="sw-gradient-1" x1="0" x2="0" y1="1" y2="0"><stop stop-color="rgba(83.106, 46.851, 86.838, 1)" offset="0%"></stop><stop stop-color="rgba(168.802, 33.892, 164.423, 1)" offset="100%"></stop></linearGradient></defs><path style="transform:translate(0, 50px); opacity:0.9" fill="url(#sw-gradient-1)" d="M0,126L60,129.5C120,133,240,140,360,133C480,126,600,105,720,108.5C840,112,960,140,1080,126C1200,112,1320,56,1440,42C1560,28,1680,56,1800,59.5C1920,63,2040,42,2160,38.5C2280,35,2400,49,2520,56C2640,63,2760,63,2880,70C3000,77,3120,91,3240,112C3360,133,3480,161,3600,147C3720,133,3840,77,3960,49C4080,21,4200,21,4320,38.5C4440,56,4560,91,4680,105C4800,119,4920,112,5040,91C5160,70,5280,35,5400,24.5C5520,14,5640,28,5760,56C5880,84,6000,126,6120,133C6240,140,6360,112,6480,115.5C6600,119,6720,154,6840,147C6960,140,7080,91,7200,84C7320,77,7440,112,7560,105C7680,98,7800,49,7920,31.5C8040,14,8160,28,8280,42C8400,56,8520,70,8580,77L8640,84L8640,210L8580,210C8520,210,8400,210,8280,210C8160,210,8040,210,7920,210C7800,210,7680,210,7560,210C7440,210,7320,210,7200,210C7080,210,6960,210,6840,210C6720,210,6600,210,6480,210C6360,210,6240,210,6120,210C6000,210,5880,210,5760,210C5640,210,5520,210,5400,210C5280,210,5160,210,5040,210C4920,210,4800,210,4680,210C4560,210,4440,210,4320,210C4200,210,4080,210,3960,210C3840,210,3720,210,3600,210C3480,210,3360,210,3240,210C3120,210,3000,210,2880,210C2760,210,2640,210,2520,210C2400,210,2280,210,2160,210C2040,210,1920,210,1800,210C1680,210,1560,210,1440,210C1320,210,1200,210,1080,210C960,210,840,210,720,210C600,210,480,210,360,210C240,210,120,210,60,210L0,210Z"></path><defs><linearGradient id="sw-gradient-2" x1="0" x2="0" y1="1" y2="0"><stop stop-color="rgba(109, 41, 116, 1)" offset="0%"></stop><stop stop-color="rgba(109, 41, 116, 1)" offset="100%"></stop></linearGradient></defs><path style="transform:translate(0, 100px); opacity:0.8" fill="url(#sw-gradient-2)" d="M0,0L60,3.5C120,7,240,14,360,14C480,14,600,7,720,7C840,7,960,14,1080,24.5C1200,35,1320,49,1440,70C1560,91,1680,119,1800,119C1920,119,2040,91,2160,80.5C2280,70,2400,77,2520,98C2640,119,2760,154,2880,147C3000,140,3120,91,3240,87.5C3360,84,3480,126,3600,122.5C3720,119,3840,70,3960,49C4080,28,4200,35,4320,42C4440,49,4560,56,4680,63C4800,70,4920,77,5040,70C5160,63,5280,42,5400,56C5520,70,5640,119,5760,129.5C5880,140,6000,112,6120,101.5C6240,91,6360,98,6480,115.5C6600,133,6720,161,6840,175C6960,189,7080,189,7200,164.5C7320,140,7440,91,7560,73.5C7680,56,7800,70,7920,70C8040,70,8160,56,8280,52.5C8400,49,8520,56,8580,59.5L8640,63L8640,210L8580,210C8520,210,8400,210,8280,210C8160,210,8040,210,7920,210C7800,210,7680,210,7560,210C7440,210,7320,210,7200,210C7080,210,6960,210,6840,210C6720,210,6600,210,6480,210C6360,210,6240,210,6120,210C6000,210,5880,210,5760,210C5640,210,5520,210,5400,210C5280,210,5160,210,5040,210C4920,210,4800,210,4680,210C4560,210,4440,210,4320,210C4200,210,4080,210,3960,210C3840,210,3720,210,3600,210C3480,210,3360,210,3240,210C3120,210,3000,210,2880,210C2760,210,2640,210,2520,210C2400,210,2280,210,2160,210C2040,210,1920,210,1800,210C1680,210,1560,210,1440,210C1320,210,1200,210,1080,210C960,210,840,210,720,210C600,210,480,210,360,210C240,210,120,210,60,210L0,210Z"></path></svg>